<mxfile host="app.diagrams.net" modified="2024-04-04T21:43:18.457Z" agent="Mozilla/5.0 (Windows NT 10.0; Win64; x64; rv:124.0) Gecko/20100101 Firefox/124.0" version="24.2.2" etag="eBR2vCvsOoe5C1farBZ1" type="device" pages="2">
  <diagram name="Page-1" id="U4PrggusS2OViSTD9D9L">
    <mxGraphModel dx="2100" dy="1152" grid="1" gridSize="10" guides="1" tooltips="1" connect="1" arrows="1" fold="1" page="1" pageScale="1" pageWidth="850" pageHeight="1100" math="0" shadow="0">
      <root>
        <mxCell id="0" />
        <mxCell id="1" parent="0" />
        <mxCell id="Eh5LCszGnNakRMXq7e9p-4" value="" style="rounded=0;whiteSpace=wrap;html=1;dashed=1;strokeWidth=2;" parent="1" vertex="1">
          <mxGeometry x="260" y="230" width="1060" height="750" as="geometry" />
        </mxCell>
        <mxCell id="hxurPMPkouSiSTXtWtos-2" value="" style="rounded=0;whiteSpace=wrap;html=1;dashed=1;strokeWidth=2;" parent="1" vertex="1">
          <mxGeometry x="60" y="230" width="160" height="750" as="geometry" />
        </mxCell>
        <mxCell id="hxurPMPkouSiSTXtWtos-16" style="edgeStyle=orthogonalEdgeStyle;rounded=0;orthogonalLoop=1;jettySize=auto;html=1;exitX=1;exitY=0.5;exitDx=0;exitDy=0;entryX=0;entryY=0.5;entryDx=0;entryDy=0;strokeWidth=2;fillColor=#ffe6cc;strokeColor=#d79b00;" parent="1" edge="1">
          <mxGeometry relative="1" as="geometry">
            <mxPoint x="630" y="330" as="targetPoint" />
            <mxPoint x="410" y="330" as="sourcePoint" />
          </mxGeometry>
        </mxCell>
        <mxCell id="hxurPMPkouSiSTXtWtos-3" value="&lt;div style=&quot;font-size: 14px;&quot;&gt;&lt;font style=&quot;font-size: 14px;&quot;&gt;API&lt;/font&gt;&lt;/div&gt;&lt;div style=&quot;font-size: 14px;&quot;&gt;&lt;font style=&quot;font-size: 14px;&quot;&gt;&lt;font style=&quot;font-size: 14px;&quot;&gt;Gateway&lt;/font&gt;&lt;br&gt;&lt;/font&gt;&lt;/div&gt;" style="ellipse;whiteSpace=wrap;html=1;aspect=fixed;strokeWidth=2;" parent="1" vertex="1">
          <mxGeometry x="310" y="280" width="100" height="100" as="geometry" />
        </mxCell>
        <mxCell id="Eh5LCszGnNakRMXq7e9p-28" style="edgeStyle=orthogonalEdgeStyle;rounded=0;orthogonalLoop=1;jettySize=auto;html=1;exitX=1;exitY=0.5;exitDx=0;exitDy=0;strokeWidth=2;entryX=0;entryY=0.5;entryDx=0;entryDy=0;startArrow=classic;startFill=1;fillColor=#0050ef;strokeColor=#001DBC;" parent="1" target="Eh5LCszGnNakRMXq7e9p-10" edge="1">
          <mxGeometry relative="1" as="geometry">
            <mxPoint x="770" y="329.5" as="sourcePoint" />
            <mxPoint x="930" y="329.5" as="targetPoint" />
            <Array as="points" />
          </mxGeometry>
        </mxCell>
        <mxCell id="Eh5LCszGnNakRMXq7e9p-33" value="&lt;b&gt;&lt;font color=&quot;#000099&quot; data-darkreader-inline-color=&quot;&quot; style=&quot;font-size: 14px; --darkreader-inline-color: #70a4ff;&quot;&gt;gRPC&lt;/font&gt;&lt;/b&gt;" style="edgeLabel;html=1;align=center;verticalAlign=middle;resizable=0;points=[];" parent="Eh5LCszGnNakRMXq7e9p-28" vertex="1" connectable="0">
          <mxGeometry x="-0.25" y="3" relative="1" as="geometry">
            <mxPoint x="28" y="-46" as="offset" />
          </mxGeometry>
        </mxCell>
        <mxCell id="hxurPMPkouSiSTXtWtos-5" value="&lt;font style=&quot;font-size: 14px;&quot;&gt;Track Logic Service&lt;/font&gt;" style="rounded=0;whiteSpace=wrap;html=1;strokeWidth=2;" parent="1" vertex="1">
          <mxGeometry x="630" y="295" width="140" height="70" as="geometry" />
        </mxCell>
        <mxCell id="hxurPMPkouSiSTXtWtos-7" value="&lt;font style=&quot;font-size: 14px;&quot;&gt;Artist Logic Service&lt;/font&gt;" style="rounded=0;whiteSpace=wrap;html=1;strokeWidth=2;" parent="1" vertex="1">
          <mxGeometry x="630" y="410" width="140" height="70" as="geometry" />
        </mxCell>
        <mxCell id="hxurPMPkouSiSTXtWtos-9" value="&lt;font style=&quot;font-size: 14px;&quot;&gt;Genre Logic Service&lt;/font&gt;" style="rounded=0;whiteSpace=wrap;html=1;strokeWidth=2;" parent="1" vertex="1">
          <mxGeometry x="630" y="530" width="140" height="70" as="geometry" />
        </mxCell>
        <mxCell id="hxurPMPkouSiSTXtWtos-14" value="&lt;font style=&quot;font-size: 14px;&quot;&gt;Genre Model Service&lt;/font&gt;" style="rounded=0;whiteSpace=wrap;html=1;strokeWidth=2;" parent="1" vertex="1">
          <mxGeometry x="1150" y="530" width="140" height="70" as="geometry" />
        </mxCell>
        <mxCell id="Eh5LCszGnNakRMXq7e9p-1" value="&lt;font style=&quot;font-size: 15px;&quot;&gt;Client&lt;/font&gt;" style="text;html=1;align=center;verticalAlign=middle;resizable=0;points=[];autosize=1;strokeColor=none;fillColor=none;" parent="1" vertex="1">
          <mxGeometry x="110" y="230" width="60" height="30" as="geometry" />
        </mxCell>
        <mxCell id="Eh5LCszGnNakRMXq7e9p-3" style="edgeStyle=orthogonalEdgeStyle;rounded=0;orthogonalLoop=1;jettySize=auto;html=1;strokeWidth=2;startArrow=classic;startFill=1;entryX=0;entryY=0.5;entryDx=0;entryDy=0;fillColor=#ffe6cc;strokeColor=#d79b00;" parent="1" target="hxurPMPkouSiSTXtWtos-3" edge="1">
          <mxGeometry relative="1" as="geometry">
            <mxPoint x="290" y="329.5" as="targetPoint" />
            <mxPoint x="160" y="330" as="sourcePoint" />
          </mxGeometry>
        </mxCell>
        <mxCell id="Eh5LCszGnNakRMXq7e9p-2" value="" style="shape=actor;whiteSpace=wrap;html=1;strokeWidth=2;" parent="1" vertex="1">
          <mxGeometry x="120" y="305" width="40" height="50" as="geometry" />
        </mxCell>
        <mxCell id="Eh5LCszGnNakRMXq7e9p-5" value="&lt;font style=&quot;font-size: 15px;&quot;&gt;Microservices&lt;/font&gt;" style="text;html=1;align=center;verticalAlign=middle;resizable=0;points=[];autosize=1;strokeColor=none;fillColor=none;" parent="1" vertex="1">
          <mxGeometry x="650" y="230" width="120" height="30" as="geometry" />
        </mxCell>
        <mxCell id="Eh5LCszGnNakRMXq7e9p-10" value="&lt;font style=&quot;font-size: 14px;&quot;&gt;Track Model Service&lt;/font&gt;" style="rounded=0;whiteSpace=wrap;html=1;strokeWidth=2;" parent="1" vertex="1">
          <mxGeometry x="1150" y="295" width="140" height="70" as="geometry" />
        </mxCell>
        <mxCell id="Eh5LCszGnNakRMXq7e9p-11" value="&lt;font style=&quot;font-size: 14px;&quot;&gt;Artist Model Service&lt;/font&gt;" style="rounded=0;whiteSpace=wrap;html=1;strokeWidth=2;" parent="1" vertex="1">
          <mxGeometry x="1150" y="410" width="140" height="70" as="geometry" />
        </mxCell>
        <mxCell id="Eh5LCszGnNakRMXq7e9p-12" value="&lt;font style=&quot;font-size: 14px;&quot;&gt;Release Logic Service&lt;/font&gt;" style="rounded=0;whiteSpace=wrap;html=1;strokeWidth=2;" parent="1" vertex="1">
          <mxGeometry x="630" y="650" width="140" height="70" as="geometry" />
        </mxCell>
        <mxCell id="Eh5LCszGnNakRMXq7e9p-13" value="&lt;font style=&quot;font-size: 14px;&quot;&gt;Playlist Logic &lt;br&gt;Service&lt;/font&gt;" style="rounded=0;whiteSpace=wrap;html=1;strokeWidth=2;" parent="1" vertex="1">
          <mxGeometry x="630" y="770" width="140" height="70" as="geometry" />
        </mxCell>
        <mxCell id="Eh5LCszGnNakRMXq7e9p-14" value="&lt;font style=&quot;font-size: 14px;&quot;&gt;Release Model Service&lt;/font&gt;" style="rounded=0;whiteSpace=wrap;html=1;strokeWidth=2;" parent="1" vertex="1">
          <mxGeometry x="1150" y="650" width="140" height="70" as="geometry" />
        </mxCell>
        <mxCell id="Eh5LCszGnNakRMXq7e9p-15" value="&lt;font style=&quot;font-size: 14px;&quot;&gt;Playlist&amp;nbsp;Model &lt;br&gt;Service&lt;/font&gt;" style="rounded=0;whiteSpace=wrap;html=1;strokeWidth=2;" parent="1" vertex="1">
          <mxGeometry x="1150" y="770" width="140" height="70" as="geometry" />
        </mxCell>
        <mxCell id="Eh5LCszGnNakRMXq7e9p-17" style="edgeStyle=orthogonalEdgeStyle;rounded=0;orthogonalLoop=1;jettySize=auto;html=1;exitX=1;exitY=0.5;exitDx=0;exitDy=0;entryX=0;entryY=0.5;entryDx=0;entryDy=0;strokeWidth=2;fillColor=#ffe6cc;strokeColor=#d79b00;" parent="1" target="hxurPMPkouSiSTXtWtos-7" edge="1">
          <mxGeometry relative="1" as="geometry">
            <mxPoint x="630" y="329.5" as="targetPoint" />
            <mxPoint x="410" y="329.5" as="sourcePoint" />
          </mxGeometry>
        </mxCell>
        <mxCell id="Eh5LCszGnNakRMXq7e9p-18" value="&lt;b&gt;&lt;font face=&quot;Helvetica&quot; data-darkreader-inline-color=&quot;&quot; color=&quot;#ffb366&quot; style=&quot;--darkreader-inline-color: #ffb061; font-size: 15px;&quot;&gt;Rest API&lt;/font&gt;&lt;/b&gt;" style="edgeLabel;html=1;align=center;verticalAlign=middle;resizable=0;points=[];" parent="Eh5LCszGnNakRMXq7e9p-17" vertex="1" connectable="0">
          <mxGeometry x="-0.2875" y="-1" relative="1" as="geometry">
            <mxPoint x="1" y="-58" as="offset" />
          </mxGeometry>
        </mxCell>
        <mxCell id="Eh5LCszGnNakRMXq7e9p-22" style="edgeStyle=orthogonalEdgeStyle;rounded=0;orthogonalLoop=1;jettySize=auto;html=1;exitX=1;exitY=0.5;exitDx=0;exitDy=0;entryX=0;entryY=0.5;entryDx=0;entryDy=0;strokeWidth=2;fillColor=#ffe6cc;strokeColor=#d79b00;" parent="1" source="hxurPMPkouSiSTXtWtos-3" target="hxurPMPkouSiSTXtWtos-9" edge="1">
          <mxGeometry relative="1" as="geometry">
            <mxPoint x="650" y="350" as="targetPoint" />
            <mxPoint x="430" y="350" as="sourcePoint" />
          </mxGeometry>
        </mxCell>
        <mxCell id="Eh5LCszGnNakRMXq7e9p-24" style="edgeStyle=orthogonalEdgeStyle;rounded=0;orthogonalLoop=1;jettySize=auto;html=1;exitX=1;exitY=0.5;exitDx=0;exitDy=0;entryX=0;entryY=0.5;entryDx=0;entryDy=0;strokeWidth=2;fillColor=#ffe6cc;strokeColor=#d79b00;" parent="1" source="hxurPMPkouSiSTXtWtos-3" target="Eh5LCszGnNakRMXq7e9p-12" edge="1">
          <mxGeometry relative="1" as="geometry">
            <mxPoint x="660" y="360" as="targetPoint" />
            <mxPoint x="440" y="360" as="sourcePoint" />
          </mxGeometry>
        </mxCell>
        <mxCell id="Eh5LCszGnNakRMXq7e9p-26" style="edgeStyle=orthogonalEdgeStyle;rounded=0;orthogonalLoop=1;jettySize=auto;html=1;exitX=1;exitY=0.5;exitDx=0;exitDy=0;entryX=0;entryY=0.5;entryDx=0;entryDy=0;strokeWidth=2;endArrow=classic;endFill=1;startArrow=classic;startFill=1;fillColor=#ffe6cc;strokeColor=#d79b00;" parent="1" source="hxurPMPkouSiSTXtWtos-3" target="Eh5LCszGnNakRMXq7e9p-13" edge="1">
          <mxGeometry relative="1" as="geometry">
            <mxPoint x="670" y="370" as="targetPoint" />
            <mxPoint x="450" y="370" as="sourcePoint" />
          </mxGeometry>
        </mxCell>
        <mxCell id="Eh5LCszGnNakRMXq7e9p-39" value="" style="rounded=0;whiteSpace=wrap;html=1;dashed=1;strokeWidth=2;" parent="1" vertex="1">
          <mxGeometry x="1380" y="230" width="160" height="750" as="geometry" />
        </mxCell>
        <mxCell id="Eh5LCszGnNakRMXq7e9p-40" value="&lt;font style=&quot;font-size: 16px;&quot;&gt;Databases&lt;/font&gt;" style="text;html=1;align=center;verticalAlign=middle;resizable=0;points=[];autosize=1;strokeColor=none;fillColor=none;" parent="1" vertex="1">
          <mxGeometry x="1410" y="230" width="100" height="30" as="geometry" />
        </mxCell>
        <mxCell id="Eh5LCszGnNakRMXq7e9p-45" style="edgeStyle=orthogonalEdgeStyle;rounded=0;orthogonalLoop=1;jettySize=auto;html=1;exitX=1;exitY=0.5;exitDx=0;exitDy=0;strokeWidth=2;entryX=0;entryY=0.5;entryDx=0;entryDy=0;startArrow=classic;startFill=1;fillColor=#0050ef;strokeColor=#001DBC;" parent="1" source="hxurPMPkouSiSTXtWtos-7" target="Eh5LCszGnNakRMXq7e9p-11" edge="1">
          <mxGeometry relative="1" as="geometry">
            <mxPoint x="770" y="450" as="sourcePoint" />
            <mxPoint x="930" y="450" as="targetPoint" />
            <Array as="points" />
          </mxGeometry>
        </mxCell>
        <mxCell id="Eh5LCszGnNakRMXq7e9p-47" style="edgeStyle=orthogonalEdgeStyle;rounded=0;orthogonalLoop=1;jettySize=auto;html=1;exitX=1;exitY=0.5;exitDx=0;exitDy=0;strokeWidth=2;entryX=0;entryY=0.5;entryDx=0;entryDy=0;startArrow=classic;startFill=1;fillColor=#0050ef;strokeColor=#001DBC;" parent="1" target="hxurPMPkouSiSTXtWtos-14" edge="1">
          <mxGeometry relative="1" as="geometry">
            <mxPoint x="770" y="564.5" as="sourcePoint" />
            <mxPoint x="930" y="564.5" as="targetPoint" />
            <Array as="points" />
          </mxGeometry>
        </mxCell>
        <mxCell id="Eh5LCszGnNakRMXq7e9p-49" style="rounded=0;orthogonalLoop=1;jettySize=auto;html=1;exitX=1;exitY=0.5;exitDx=0;exitDy=0;strokeWidth=2;entryX=0;entryY=0.5;entryDx=0;entryDy=0;startArrow=classic;startFill=1;fillColor=#0050ef;strokeColor=#001DBC;" parent="1" target="Eh5LCszGnNakRMXq7e9p-14" edge="1">
          <mxGeometry relative="1" as="geometry">
            <mxPoint x="770" y="684.5" as="sourcePoint" />
            <mxPoint x="930" y="684.5" as="targetPoint" />
          </mxGeometry>
        </mxCell>
        <mxCell id="Eh5LCszGnNakRMXq7e9p-51" style="edgeStyle=orthogonalEdgeStyle;rounded=0;orthogonalLoop=1;jettySize=auto;html=1;exitX=1;exitY=0.5;exitDx=0;exitDy=0;strokeWidth=2;entryX=0;entryY=0.5;entryDx=0;entryDy=0;startArrow=classic;startFill=1;fillColor=#0050ef;strokeColor=#001DBC;" parent="1" target="Eh5LCszGnNakRMXq7e9p-15" edge="1">
          <mxGeometry relative="1" as="geometry">
            <mxPoint x="770" y="804.5" as="sourcePoint" />
            <mxPoint x="930" y="804.5" as="targetPoint" />
            <Array as="points" />
          </mxGeometry>
        </mxCell>
        <mxCell id="Eh5LCszGnNakRMXq7e9p-59" value="&lt;font style=&quot;font-size: 15px;&quot;&gt;Tracks&lt;/font&gt;" style="shape=cylinder3;whiteSpace=wrap;html=1;boundedLbl=1;backgroundOutline=1;size=15;strokeWidth=2;" parent="1" vertex="1">
          <mxGeometry x="1430" y="290" width="60" height="80" as="geometry" />
        </mxCell>
        <mxCell id="Eh5LCszGnNakRMXq7e9p-60" value="&lt;font style=&quot;font-size: 16px;&quot;&gt;Artist&lt;/font&gt;" style="shape=cylinder3;whiteSpace=wrap;html=1;boundedLbl=1;backgroundOutline=1;size=15;strokeWidth=2;" parent="1" vertex="1">
          <mxGeometry x="1430" y="405" width="60" height="80" as="geometry" />
        </mxCell>
        <mxCell id="Eh5LCszGnNakRMXq7e9p-61" value="&lt;font style=&quot;font-size: 16px;&quot;&gt;Genre&lt;/font&gt;" style="shape=cylinder3;whiteSpace=wrap;html=1;boundedLbl=1;backgroundOutline=1;size=15;strokeWidth=2;" parent="1" vertex="1">
          <mxGeometry x="1430" y="525" width="60" height="80" as="geometry" />
        </mxCell>
        <mxCell id="Eh5LCszGnNakRMXq7e9p-62" value="&lt;font style=&quot;font-size: 15px;&quot;&gt;Release&lt;/font&gt;" style="shape=cylinder3;whiteSpace=wrap;html=1;boundedLbl=1;backgroundOutline=1;size=15;strokeWidth=2;" parent="1" vertex="1">
          <mxGeometry x="1430" y="645" width="60" height="80" as="geometry" />
        </mxCell>
        <mxCell id="Eh5LCszGnNakRMXq7e9p-63" value="&lt;font style=&quot;font-size: 15px;&quot;&gt;Playlist&lt;/font&gt;" style="shape=cylinder3;whiteSpace=wrap;html=1;boundedLbl=1;backgroundOutline=1;size=15;strokeWidth=2;" parent="1" vertex="1">
          <mxGeometry x="1430" y="765" width="60" height="80" as="geometry" />
        </mxCell>
        <mxCell id="Eh5LCszGnNakRMXq7e9p-64" style="edgeStyle=orthogonalEdgeStyle;rounded=0;orthogonalLoop=1;jettySize=auto;html=1;exitX=1;exitY=0.5;exitDx=0;exitDy=0;entryX=0;entryY=0.5;entryDx=0;entryDy=0;entryPerimeter=0;strokeWidth=2;startArrow=classic;startFill=1;" parent="1" source="Eh5LCszGnNakRMXq7e9p-15" target="Eh5LCszGnNakRMXq7e9p-63" edge="1">
          <mxGeometry relative="1" as="geometry" />
        </mxCell>
        <mxCell id="Eh5LCszGnNakRMXq7e9p-65" style="edgeStyle=orthogonalEdgeStyle;rounded=0;orthogonalLoop=1;jettySize=auto;html=1;exitX=1;exitY=0.5;exitDx=0;exitDy=0;entryX=0;entryY=0.5;entryDx=0;entryDy=0;entryPerimeter=0;strokeWidth=2;startArrow=classic;startFill=1;" parent="1" source="Eh5LCszGnNakRMXq7e9p-14" target="Eh5LCszGnNakRMXq7e9p-62" edge="1">
          <mxGeometry relative="1" as="geometry" />
        </mxCell>
        <mxCell id="Eh5LCszGnNakRMXq7e9p-66" style="edgeStyle=orthogonalEdgeStyle;rounded=0;orthogonalLoop=1;jettySize=auto;html=1;exitX=1;exitY=0.5;exitDx=0;exitDy=0;entryX=0;entryY=0.5;entryDx=0;entryDy=0;entryPerimeter=0;strokeWidth=2;startArrow=classic;startFill=1;" parent="1" source="hxurPMPkouSiSTXtWtos-14" target="Eh5LCszGnNakRMXq7e9p-61" edge="1">
          <mxGeometry relative="1" as="geometry" />
        </mxCell>
        <mxCell id="Eh5LCszGnNakRMXq7e9p-67" style="edgeStyle=orthogonalEdgeStyle;rounded=0;orthogonalLoop=1;jettySize=auto;html=1;exitX=1;exitY=0.5;exitDx=0;exitDy=0;entryX=0;entryY=0.5;entryDx=0;entryDy=0;entryPerimeter=0;strokeWidth=2;startArrow=classic;startFill=1;" parent="1" source="Eh5LCszGnNakRMXq7e9p-11" target="Eh5LCszGnNakRMXq7e9p-60" edge="1">
          <mxGeometry relative="1" as="geometry" />
        </mxCell>
        <mxCell id="Eh5LCszGnNakRMXq7e9p-68" style="edgeStyle=orthogonalEdgeStyle;rounded=0;orthogonalLoop=1;jettySize=auto;html=1;exitX=1;exitY=0.5;exitDx=0;exitDy=0;entryX=0;entryY=0.5;entryDx=0;entryDy=0;entryPerimeter=0;strokeWidth=2;startArrow=classic;startFill=1;" parent="1" source="Eh5LCszGnNakRMXq7e9p-10" target="Eh5LCszGnNakRMXq7e9p-59" edge="1">
          <mxGeometry relative="1" as="geometry" />
        </mxCell>
        <mxCell id="7" style="rounded=0;orthogonalLoop=1;jettySize=auto;html=1;exitX=1;exitY=0.5;exitDx=0;exitDy=0;strokeWidth=2;entryX=0;entryY=0.5;entryDx=0;entryDy=0;startArrow=classic;startFill=1;fillColor=#0050ef;strokeColor=#001DBC;" parent="1" source="hxurPMPkouSiSTXtWtos-5" target="hxurPMPkouSiSTXtWtos-14" edge="1">
          <mxGeometry relative="1" as="geometry">
            <mxPoint x="780" y="339.5" as="sourcePoint" />
            <mxPoint x="1160" y="340" as="targetPoint" />
          </mxGeometry>
        </mxCell>
        <mxCell id="9" style="rounded=0;orthogonalLoop=1;jettySize=auto;html=1;exitX=1;exitY=0.5;exitDx=0;exitDy=0;strokeWidth=2;entryX=0;entryY=0.5;entryDx=0;entryDy=0;startArrow=classic;startFill=1;fillColor=#0050ef;strokeColor=#001DBC;" parent="1" source="hxurPMPkouSiSTXtWtos-5" target="Eh5LCszGnNakRMXq7e9p-14" edge="1">
          <mxGeometry relative="1" as="geometry">
            <mxPoint x="780" y="340" as="sourcePoint" />
            <mxPoint x="1160" y="575" as="targetPoint" />
          </mxGeometry>
        </mxCell>
        <mxCell id="11" style="rounded=0;orthogonalLoop=1;jettySize=auto;html=1;exitX=1;exitY=0.5;exitDx=0;exitDy=0;strokeWidth=2;entryX=0;entryY=0.5;entryDx=0;entryDy=0;startArrow=classic;startFill=1;fillColor=#0050ef;strokeColor=#001DBC;" parent="1" source="hxurPMPkouSiSTXtWtos-7" target="Eh5LCszGnNakRMXq7e9p-14" edge="1">
          <mxGeometry relative="1" as="geometry">
            <mxPoint x="780" y="340" as="sourcePoint" />
            <mxPoint x="1160" y="695" as="targetPoint" />
          </mxGeometry>
        </mxCell>
        <mxCell id="13" style="rounded=0;orthogonalLoop=1;jettySize=auto;html=1;exitX=1;exitY=0.5;exitDx=0;exitDy=0;strokeWidth=2;entryX=0;entryY=0.5;entryDx=0;entryDy=0;startArrow=classic;startFill=1;fillColor=#0050ef;strokeColor=#001DBC;" parent="1" source="hxurPMPkouSiSTXtWtos-9" target="Eh5LCszGnNakRMXq7e9p-10" edge="1">
          <mxGeometry relative="1" as="geometry">
            <mxPoint x="780" y="455" as="sourcePoint" />
            <mxPoint x="1160" y="695" as="targetPoint" />
          </mxGeometry>
        </mxCell>
        <mxCell id="15" style="rounded=0;orthogonalLoop=1;jettySize=auto;html=1;exitX=1;exitY=0.5;exitDx=0;exitDy=0;strokeWidth=2;entryX=0;entryY=0.5;entryDx=0;entryDy=0;startArrow=classic;startFill=1;fillColor=#0050ef;strokeColor=#001DBC;" parent="1" source="Eh5LCszGnNakRMXq7e9p-13" target="Eh5LCszGnNakRMXq7e9p-10" edge="1">
          <mxGeometry relative="1" as="geometry">
            <mxPoint x="780" y="575" as="sourcePoint" />
            <mxPoint x="1160" y="340" as="targetPoint" />
          </mxGeometry>
        </mxCell>
        <mxCell id="16" value="&lt;span style=&quot;font-size: 14px;&quot;&gt;Artist-Release Model Service&lt;/span&gt;" style="rounded=0;whiteSpace=wrap;html=1;strokeWidth=2;" parent="1" vertex="1">
          <mxGeometry x="1150" y="880" width="140" height="70" as="geometry" />
        </mxCell>
        <mxCell id="17" style="edgeStyle=orthogonalEdgeStyle;rounded=0;orthogonalLoop=1;jettySize=auto;html=1;exitX=1;exitY=0.5;exitDx=0;exitDy=0;entryX=0;entryY=0.5;entryDx=0;entryDy=0;entryPerimeter=0;strokeWidth=2;startArrow=classic;startFill=1;" parent="1" edge="1">
          <mxGeometry relative="1" as="geometry">
            <mxPoint x="1290" y="914.29" as="sourcePoint" />
            <mxPoint x="1430" y="914.29" as="targetPoint" />
          </mxGeometry>
        </mxCell>
        <mxCell id="18" value="&lt;span style=&quot;font-size: 14px;&quot;&gt;Artist-Release&lt;/span&gt;" style="shape=cylinder3;whiteSpace=wrap;html=1;boundedLbl=1;backgroundOutline=1;size=15;strokeWidth=2;" parent="1" vertex="1">
          <mxGeometry x="1430" y="880" width="60" height="80" as="geometry" />
        </mxCell>
        <mxCell id="19" style="rounded=0;orthogonalLoop=1;jettySize=auto;html=1;exitX=1;exitY=0.5;exitDx=0;exitDy=0;strokeWidth=2;entryX=0;entryY=0.5;entryDx=0;entryDy=0;startArrow=classic;startFill=1;fillColor=#0050ef;strokeColor=#001DBC;" parent="1" source="hxurPMPkouSiSTXtWtos-7" target="16" edge="1">
          <mxGeometry relative="1" as="geometry">
            <mxPoint x="780" y="455" as="sourcePoint" />
            <mxPoint x="1160" y="695" as="targetPoint" />
          </mxGeometry>
        </mxCell>
        <mxCell id="23" style="rounded=0;orthogonalLoop=1;jettySize=auto;html=1;strokeWidth=2;entryX=0;entryY=0.5;entryDx=0;entryDy=0;startArrow=classic;startFill=1;fillColor=#0050ef;strokeColor=#001DBC;exitX=1;exitY=0.5;exitDx=0;exitDy=0;" parent="1" source="Eh5LCszGnNakRMXq7e9p-12" target="16" edge="1">
          <mxGeometry relative="1" as="geometry">
            <mxPoint x="780" y="694.5" as="sourcePoint" />
            <mxPoint x="1160" y="695" as="targetPoint" />
          </mxGeometry>
        </mxCell>
        <mxCell id="24" style="rounded=0;orthogonalLoop=1;jettySize=auto;html=1;exitX=1;exitY=0.5;exitDx=0;exitDy=0;strokeWidth=2;entryX=0;entryY=0.5;entryDx=0;entryDy=0;startArrow=classic;startFill=1;fillColor=#0050ef;strokeColor=#001DBC;" parent="1" source="Eh5LCszGnNakRMXq7e9p-12" target="Eh5LCszGnNakRMXq7e9p-11" edge="1">
          <mxGeometry relative="1" as="geometry">
            <mxPoint x="790" y="704.5" as="sourcePoint" />
            <mxPoint x="1170" y="705" as="targetPoint" />
          </mxGeometry>
        </mxCell>
        <mxCell id="25" style="rounded=0;orthogonalLoop=1;jettySize=auto;html=1;exitX=1;exitY=0.5;exitDx=0;exitDy=0;strokeWidth=2;entryX=0;entryY=0.5;entryDx=0;entryDy=0;startArrow=classic;startFill=1;fillColor=#0050ef;strokeColor=#001DBC;" parent="1" source="hxurPMPkouSiSTXtWtos-5" target="Eh5LCszGnNakRMXq7e9p-15" edge="1">
          <mxGeometry relative="1" as="geometry">
            <mxPoint x="780" y="340" as="sourcePoint" />
            <mxPoint x="1160" y="695" as="targetPoint" />
          </mxGeometry>
        </mxCell>
      </root>
    </mxGraphModel>
  </diagram>
  <diagram id="_nhM_AsJdQ9i46bdlfBw" name="Page-2">
    <mxGraphModel dx="1050" dy="576" grid="1" gridSize="10" guides="1" tooltips="1" connect="1" arrows="1" fold="1" page="1" pageScale="1" pageWidth="850" pageHeight="1100" math="0" shadow="0">
      <root>
        <mxCell id="0" />
        <mxCell id="1" parent="0" />
        <mxCell id="dh3pIF2ffj1Ap50NJZog-26" value="" style="rounded=0;whiteSpace=wrap;html=1;dashed=1;strokeWidth=2;" vertex="1" parent="1">
          <mxGeometry x="1380" y="230" width="160" height="750" as="geometry" />
        </mxCell>
        <mxCell id="dh3pIF2ffj1Ap50NJZog-72" value="" style="rounded=0;whiteSpace=wrap;html=1;" vertex="1" parent="1">
          <mxGeometry x="1420" y="385" width="80" height="100" as="geometry" />
        </mxCell>
        <mxCell id="dh3pIF2ffj1Ap50NJZog-73" value="" style="rounded=0;whiteSpace=wrap;html=1;" vertex="1" parent="1">
          <mxGeometry x="1420" y="505" width="80" height="100" as="geometry" />
        </mxCell>
        <mxCell id="dh3pIF2ffj1Ap50NJZog-74" value="" style="rounded=0;whiteSpace=wrap;html=1;" vertex="1" parent="1">
          <mxGeometry x="1420" y="625" width="80" height="100" as="geometry" />
        </mxCell>
        <mxCell id="dh3pIF2ffj1Ap50NJZog-76" value="" style="rounded=0;whiteSpace=wrap;html=1;" vertex="1" parent="1">
          <mxGeometry x="1420" y="860" width="80" height="100" as="geometry" />
        </mxCell>
        <mxCell id="dh3pIF2ffj1Ap50NJZog-75" value="" style="rounded=0;whiteSpace=wrap;html=1;" vertex="1" parent="1">
          <mxGeometry x="1420" y="745" width="80" height="100" as="geometry" />
        </mxCell>
        <mxCell id="dh3pIF2ffj1Ap50NJZog-66" value="" style="rounded=0;whiteSpace=wrap;html=1;" vertex="1" parent="1">
          <mxGeometry x="1420" y="270" width="80" height="100" as="geometry" />
        </mxCell>
        <mxCell id="dh3pIF2ffj1Ap50NJZog-1" value="" style="rounded=0;whiteSpace=wrap;html=1;dashed=1;strokeWidth=2;" vertex="1" parent="1">
          <mxGeometry x="260" y="230" width="1060" height="750" as="geometry" />
        </mxCell>
        <mxCell id="dh3pIF2ffj1Ap50NJZog-2" value="" style="rounded=0;whiteSpace=wrap;html=1;dashed=1;strokeWidth=2;" vertex="1" parent="1">
          <mxGeometry x="60" y="230" width="160" height="750" as="geometry" />
        </mxCell>
        <mxCell id="dh3pIF2ffj1Ap50NJZog-3" style="edgeStyle=orthogonalEdgeStyle;rounded=0;orthogonalLoop=1;jettySize=auto;html=1;exitX=1;exitY=0.5;exitDx=0;exitDy=0;entryX=0;entryY=0.5;entryDx=0;entryDy=0;strokeWidth=2;fillColor=#ffe6cc;strokeColor=#d79b00;" edge="1" parent="1">
          <mxGeometry relative="1" as="geometry">
            <mxPoint x="630" y="330" as="targetPoint" />
            <mxPoint x="410" y="330" as="sourcePoint" />
          </mxGeometry>
        </mxCell>
        <mxCell id="dh3pIF2ffj1Ap50NJZog-4" value="&lt;div style=&quot;font-size: 14px;&quot;&gt;&lt;font style=&quot;font-size: 14px;&quot;&gt;API&lt;/font&gt;&lt;/div&gt;&lt;div style=&quot;font-size: 14px;&quot;&gt;&lt;font style=&quot;font-size: 14px;&quot;&gt;&lt;font style=&quot;font-size: 14px;&quot;&gt;Gateway&lt;/font&gt;&lt;br&gt;&lt;/font&gt;&lt;/div&gt;" style="ellipse;whiteSpace=wrap;html=1;aspect=fixed;strokeWidth=2;" vertex="1" parent="1">
          <mxGeometry x="310" y="280" width="100" height="100" as="geometry" />
        </mxCell>
        <mxCell id="dh3pIF2ffj1Ap50NJZog-5" style="edgeStyle=orthogonalEdgeStyle;rounded=0;orthogonalLoop=1;jettySize=auto;html=1;exitX=1;exitY=0.5;exitDx=0;exitDy=0;strokeWidth=2;entryX=0;entryY=0.5;entryDx=0;entryDy=0;startArrow=classic;startFill=1;fillColor=#0050ef;strokeColor=#001DBC;" edge="1" parent="1" target="dh3pIF2ffj1Ap50NJZog-15">
          <mxGeometry relative="1" as="geometry">
            <mxPoint x="770" y="329.5" as="sourcePoint" />
            <mxPoint x="930" y="329.5" as="targetPoint" />
            <Array as="points" />
          </mxGeometry>
        </mxCell>
        <mxCell id="dh3pIF2ffj1Ap50NJZog-6" value="&lt;b&gt;&lt;font color=&quot;#000099&quot; data-darkreader-inline-color=&quot;&quot; style=&quot;font-size: 14px; --darkreader-inline-color: #70a4ff;&quot;&gt;gRPC&lt;/font&gt;&lt;/b&gt;" style="edgeLabel;html=1;align=center;verticalAlign=middle;resizable=0;points=[];" vertex="1" connectable="0" parent="dh3pIF2ffj1Ap50NJZog-5">
          <mxGeometry x="-0.25" y="3" relative="1" as="geometry">
            <mxPoint x="28" y="-46" as="offset" />
          </mxGeometry>
        </mxCell>
        <mxCell id="dh3pIF2ffj1Ap50NJZog-7" value="&lt;font style=&quot;font-size: 14px;&quot;&gt;Track Logic Service&lt;/font&gt;" style="rounded=0;whiteSpace=wrap;html=1;strokeWidth=2;" vertex="1" parent="1">
          <mxGeometry x="630" y="295" width="140" height="70" as="geometry" />
        </mxCell>
        <mxCell id="dh3pIF2ffj1Ap50NJZog-8" value="&lt;font style=&quot;font-size: 14px;&quot;&gt;Artist Logic Service&lt;/font&gt;" style="rounded=0;whiteSpace=wrap;html=1;strokeWidth=2;" vertex="1" parent="1">
          <mxGeometry x="630" y="410" width="140" height="70" as="geometry" />
        </mxCell>
        <mxCell id="dh3pIF2ffj1Ap50NJZog-9" value="&lt;font style=&quot;font-size: 14px;&quot;&gt;Genre Logic Service&lt;/font&gt;" style="rounded=0;whiteSpace=wrap;html=1;strokeWidth=2;" vertex="1" parent="1">
          <mxGeometry x="630" y="530" width="140" height="70" as="geometry" />
        </mxCell>
        <mxCell id="dh3pIF2ffj1Ap50NJZog-10" value="&lt;font style=&quot;font-size: 14px;&quot;&gt;Genre Model Service&lt;/font&gt;" style="rounded=0;whiteSpace=wrap;html=1;strokeWidth=2;" vertex="1" parent="1">
          <mxGeometry x="1150" y="530" width="140" height="70" as="geometry" />
        </mxCell>
        <mxCell id="dh3pIF2ffj1Ap50NJZog-11" value="&lt;font style=&quot;font-size: 15px;&quot;&gt;Client&lt;/font&gt;" style="text;html=1;align=center;verticalAlign=middle;resizable=0;points=[];autosize=1;strokeColor=none;fillColor=none;" vertex="1" parent="1">
          <mxGeometry x="110" y="230" width="60" height="30" as="geometry" />
        </mxCell>
        <mxCell id="dh3pIF2ffj1Ap50NJZog-12" style="edgeStyle=orthogonalEdgeStyle;rounded=0;orthogonalLoop=1;jettySize=auto;html=1;strokeWidth=2;startArrow=classic;startFill=1;entryX=0;entryY=0.5;entryDx=0;entryDy=0;fillColor=#ffe6cc;strokeColor=#d79b00;" edge="1" parent="1" target="dh3pIF2ffj1Ap50NJZog-4">
          <mxGeometry relative="1" as="geometry">
            <mxPoint x="290" y="329.5" as="targetPoint" />
            <mxPoint x="160" y="330" as="sourcePoint" />
          </mxGeometry>
        </mxCell>
        <mxCell id="dh3pIF2ffj1Ap50NJZog-13" value="" style="shape=actor;whiteSpace=wrap;html=1;strokeWidth=2;" vertex="1" parent="1">
          <mxGeometry x="120" y="305" width="40" height="50" as="geometry" />
        </mxCell>
        <mxCell id="dh3pIF2ffj1Ap50NJZog-14" value="&lt;font style=&quot;font-size: 15px;&quot;&gt;Microservices&lt;/font&gt;" style="text;html=1;align=center;verticalAlign=middle;resizable=0;points=[];autosize=1;strokeColor=none;fillColor=none;" vertex="1" parent="1">
          <mxGeometry x="650" y="230" width="120" height="30" as="geometry" />
        </mxCell>
        <mxCell id="dh3pIF2ffj1Ap50NJZog-15" value="&lt;font style=&quot;font-size: 14px;&quot;&gt;Track Model Service&lt;/font&gt;" style="rounded=0;whiteSpace=wrap;html=1;strokeWidth=2;" vertex="1" parent="1">
          <mxGeometry x="1150" y="295" width="140" height="70" as="geometry" />
        </mxCell>
        <mxCell id="dh3pIF2ffj1Ap50NJZog-16" value="&lt;font style=&quot;font-size: 14px;&quot;&gt;Artist Model Service&lt;/font&gt;" style="rounded=0;whiteSpace=wrap;html=1;strokeWidth=2;" vertex="1" parent="1">
          <mxGeometry x="1150" y="410" width="140" height="70" as="geometry" />
        </mxCell>
        <mxCell id="dh3pIF2ffj1Ap50NJZog-17" value="&lt;font style=&quot;font-size: 14px;&quot;&gt;Release Logic Service&lt;/font&gt;" style="rounded=0;whiteSpace=wrap;html=1;strokeWidth=2;" vertex="1" parent="1">
          <mxGeometry x="630" y="650" width="140" height="70" as="geometry" />
        </mxCell>
        <mxCell id="dh3pIF2ffj1Ap50NJZog-18" value="&lt;font style=&quot;font-size: 14px;&quot;&gt;Playlist Logic &lt;br&gt;Service&lt;/font&gt;" style="rounded=0;whiteSpace=wrap;html=1;strokeWidth=2;" vertex="1" parent="1">
          <mxGeometry x="630" y="770" width="140" height="70" as="geometry" />
        </mxCell>
        <mxCell id="dh3pIF2ffj1Ap50NJZog-19" value="&lt;font style=&quot;font-size: 14px;&quot;&gt;Release Model Service&lt;/font&gt;" style="rounded=0;whiteSpace=wrap;html=1;strokeWidth=2;" vertex="1" parent="1">
          <mxGeometry x="1150" y="650" width="140" height="70" as="geometry" />
        </mxCell>
        <mxCell id="dh3pIF2ffj1Ap50NJZog-20" value="&lt;font style=&quot;font-size: 14px;&quot;&gt;Playlist&amp;nbsp;Model &lt;br&gt;Service&lt;/font&gt;" style="rounded=0;whiteSpace=wrap;html=1;strokeWidth=2;" vertex="1" parent="1">
          <mxGeometry x="1150" y="770" width="140" height="70" as="geometry" />
        </mxCell>
        <mxCell id="dh3pIF2ffj1Ap50NJZog-21" style="edgeStyle=orthogonalEdgeStyle;rounded=0;orthogonalLoop=1;jettySize=auto;html=1;exitX=1;exitY=0.5;exitDx=0;exitDy=0;entryX=0;entryY=0.5;entryDx=0;entryDy=0;strokeWidth=2;fillColor=#ffe6cc;strokeColor=#d79b00;" edge="1" parent="1" target="dh3pIF2ffj1Ap50NJZog-8">
          <mxGeometry relative="1" as="geometry">
            <mxPoint x="630" y="329.5" as="targetPoint" />
            <mxPoint x="410" y="329.5" as="sourcePoint" />
          </mxGeometry>
        </mxCell>
        <mxCell id="dh3pIF2ffj1Ap50NJZog-22" value="&lt;b&gt;&lt;font face=&quot;Helvetica&quot; data-darkreader-inline-color=&quot;&quot; color=&quot;#ffb366&quot; style=&quot;--darkreader-inline-color: #ffb061; font-size: 15px;&quot;&gt;Rest API&lt;/font&gt;&lt;/b&gt;" style="edgeLabel;html=1;align=center;verticalAlign=middle;resizable=0;points=[];" vertex="1" connectable="0" parent="dh3pIF2ffj1Ap50NJZog-21">
          <mxGeometry x="-0.2875" y="-1" relative="1" as="geometry">
            <mxPoint x="1" y="-58" as="offset" />
          </mxGeometry>
        </mxCell>
        <mxCell id="dh3pIF2ffj1Ap50NJZog-23" style="edgeStyle=orthogonalEdgeStyle;rounded=0;orthogonalLoop=1;jettySize=auto;html=1;exitX=1;exitY=0.5;exitDx=0;exitDy=0;entryX=0;entryY=0.5;entryDx=0;entryDy=0;strokeWidth=2;fillColor=#ffe6cc;strokeColor=#d79b00;" edge="1" parent="1" source="dh3pIF2ffj1Ap50NJZog-4" target="dh3pIF2ffj1Ap50NJZog-9">
          <mxGeometry relative="1" as="geometry">
            <mxPoint x="650" y="350" as="targetPoint" />
            <mxPoint x="430" y="350" as="sourcePoint" />
          </mxGeometry>
        </mxCell>
        <mxCell id="dh3pIF2ffj1Ap50NJZog-24" style="edgeStyle=orthogonalEdgeStyle;rounded=0;orthogonalLoop=1;jettySize=auto;html=1;exitX=1;exitY=0.5;exitDx=0;exitDy=0;entryX=0;entryY=0.5;entryDx=0;entryDy=0;strokeWidth=2;fillColor=#ffe6cc;strokeColor=#d79b00;" edge="1" parent="1" source="dh3pIF2ffj1Ap50NJZog-4" target="dh3pIF2ffj1Ap50NJZog-17">
          <mxGeometry relative="1" as="geometry">
            <mxPoint x="660" y="360" as="targetPoint" />
            <mxPoint x="440" y="360" as="sourcePoint" />
          </mxGeometry>
        </mxCell>
        <mxCell id="dh3pIF2ffj1Ap50NJZog-25" style="edgeStyle=orthogonalEdgeStyle;rounded=0;orthogonalLoop=1;jettySize=auto;html=1;exitX=1;exitY=0.5;exitDx=0;exitDy=0;entryX=0;entryY=0.5;entryDx=0;entryDy=0;strokeWidth=2;endArrow=classic;endFill=1;startArrow=classic;startFill=1;fillColor=#ffe6cc;strokeColor=#d79b00;" edge="1" parent="1" source="dh3pIF2ffj1Ap50NJZog-4" target="dh3pIF2ffj1Ap50NJZog-18">
          <mxGeometry relative="1" as="geometry">
            <mxPoint x="670" y="370" as="targetPoint" />
            <mxPoint x="450" y="370" as="sourcePoint" />
          </mxGeometry>
        </mxCell>
        <mxCell id="dh3pIF2ffj1Ap50NJZog-27" value="&lt;font style=&quot;font-size: 16px;&quot;&gt;Databases&lt;/font&gt;" style="text;html=1;align=center;verticalAlign=middle;resizable=0;points=[];autosize=1;strokeColor=none;fillColor=none;" vertex="1" parent="1">
          <mxGeometry x="1410" y="230" width="100" height="30" as="geometry" />
        </mxCell>
        <mxCell id="dh3pIF2ffj1Ap50NJZog-28" style="edgeStyle=orthogonalEdgeStyle;rounded=0;orthogonalLoop=1;jettySize=auto;html=1;exitX=1;exitY=0.5;exitDx=0;exitDy=0;strokeWidth=2;entryX=0;entryY=0.5;entryDx=0;entryDy=0;startArrow=classic;startFill=1;fillColor=#0050ef;strokeColor=#001DBC;" edge="1" parent="1" source="dh3pIF2ffj1Ap50NJZog-8" target="dh3pIF2ffj1Ap50NJZog-16">
          <mxGeometry relative="1" as="geometry">
            <mxPoint x="770" y="450" as="sourcePoint" />
            <mxPoint x="930" y="450" as="targetPoint" />
            <Array as="points" />
          </mxGeometry>
        </mxCell>
        <mxCell id="dh3pIF2ffj1Ap50NJZog-29" style="edgeStyle=orthogonalEdgeStyle;rounded=0;orthogonalLoop=1;jettySize=auto;html=1;exitX=1;exitY=0.5;exitDx=0;exitDy=0;strokeWidth=2;entryX=0;entryY=0.5;entryDx=0;entryDy=0;startArrow=classic;startFill=1;fillColor=#0050ef;strokeColor=#001DBC;" edge="1" parent="1" target="dh3pIF2ffj1Ap50NJZog-10">
          <mxGeometry relative="1" as="geometry">
            <mxPoint x="770" y="564.5" as="sourcePoint" />
            <mxPoint x="930" y="564.5" as="targetPoint" />
            <Array as="points" />
          </mxGeometry>
        </mxCell>
        <mxCell id="dh3pIF2ffj1Ap50NJZog-30" style="rounded=0;orthogonalLoop=1;jettySize=auto;html=1;exitX=1;exitY=0.5;exitDx=0;exitDy=0;strokeWidth=2;entryX=0;entryY=0.5;entryDx=0;entryDy=0;startArrow=classic;startFill=1;fillColor=#0050ef;strokeColor=#001DBC;" edge="1" parent="1" target="dh3pIF2ffj1Ap50NJZog-19">
          <mxGeometry relative="1" as="geometry">
            <mxPoint x="770" y="684.5" as="sourcePoint" />
            <mxPoint x="930" y="684.5" as="targetPoint" />
          </mxGeometry>
        </mxCell>
        <mxCell id="dh3pIF2ffj1Ap50NJZog-31" style="edgeStyle=orthogonalEdgeStyle;rounded=0;orthogonalLoop=1;jettySize=auto;html=1;exitX=1;exitY=0.5;exitDx=0;exitDy=0;strokeWidth=2;entryX=0;entryY=0.5;entryDx=0;entryDy=0;startArrow=classic;startFill=1;fillColor=#0050ef;strokeColor=#001DBC;" edge="1" parent="1" target="dh3pIF2ffj1Ap50NJZog-20">
          <mxGeometry relative="1" as="geometry">
            <mxPoint x="770" y="804.5" as="sourcePoint" />
            <mxPoint x="930" y="804.5" as="targetPoint" />
            <Array as="points" />
          </mxGeometry>
        </mxCell>
        <mxCell id="dh3pIF2ffj1Ap50NJZog-32" value="&lt;font style=&quot;font-size: 15px;&quot;&gt;Tracks&lt;/font&gt;" style="shape=cylinder3;whiteSpace=wrap;html=1;boundedLbl=1;backgroundOutline=1;size=15;strokeWidth=2;" vertex="1" parent="1">
          <mxGeometry x="1430" y="290" width="60" height="80" as="geometry" />
        </mxCell>
        <mxCell id="dh3pIF2ffj1Ap50NJZog-33" value="&lt;font style=&quot;font-size: 16px;&quot;&gt;Artist&lt;/font&gt;" style="shape=cylinder3;whiteSpace=wrap;html=1;boundedLbl=1;backgroundOutline=1;size=15;strokeWidth=2;" vertex="1" parent="1">
          <mxGeometry x="1430" y="405" width="60" height="80" as="geometry" />
        </mxCell>
        <mxCell id="dh3pIF2ffj1Ap50NJZog-34" value="&lt;font style=&quot;font-size: 16px;&quot;&gt;Genre&lt;/font&gt;" style="shape=cylinder3;whiteSpace=wrap;html=1;boundedLbl=1;backgroundOutline=1;size=15;strokeWidth=2;" vertex="1" parent="1">
          <mxGeometry x="1430" y="525" width="60" height="80" as="geometry" />
        </mxCell>
        <mxCell id="dh3pIF2ffj1Ap50NJZog-35" value="&lt;font style=&quot;font-size: 15px;&quot;&gt;Release&lt;/font&gt;" style="shape=cylinder3;whiteSpace=wrap;html=1;boundedLbl=1;backgroundOutline=1;size=15;strokeWidth=2;" vertex="1" parent="1">
          <mxGeometry x="1430" y="645" width="60" height="80" as="geometry" />
        </mxCell>
        <mxCell id="dh3pIF2ffj1Ap50NJZog-36" value="&lt;font style=&quot;font-size: 15px;&quot;&gt;Playlist&lt;/font&gt;" style="shape=cylinder3;whiteSpace=wrap;html=1;boundedLbl=1;backgroundOutline=1;size=15;strokeWidth=2;" vertex="1" parent="1">
          <mxGeometry x="1430" y="765" width="60" height="80" as="geometry" />
        </mxCell>
        <mxCell id="dh3pIF2ffj1Ap50NJZog-37" style="edgeStyle=orthogonalEdgeStyle;rounded=0;orthogonalLoop=1;jettySize=auto;html=1;exitX=1;exitY=0.5;exitDx=0;exitDy=0;entryX=0;entryY=0.5;entryDx=0;entryDy=0;entryPerimeter=0;strokeWidth=2;startArrow=classic;startFill=1;" edge="1" parent="1" source="dh3pIF2ffj1Ap50NJZog-20" target="dh3pIF2ffj1Ap50NJZog-36">
          <mxGeometry relative="1" as="geometry" />
        </mxCell>
        <mxCell id="dh3pIF2ffj1Ap50NJZog-38" style="edgeStyle=orthogonalEdgeStyle;rounded=0;orthogonalLoop=1;jettySize=auto;html=1;exitX=1;exitY=0.5;exitDx=0;exitDy=0;entryX=0;entryY=0.5;entryDx=0;entryDy=0;entryPerimeter=0;strokeWidth=2;startArrow=classic;startFill=1;" edge="1" parent="1" source="dh3pIF2ffj1Ap50NJZog-19" target="dh3pIF2ffj1Ap50NJZog-35">
          <mxGeometry relative="1" as="geometry" />
        </mxCell>
        <mxCell id="dh3pIF2ffj1Ap50NJZog-39" style="edgeStyle=orthogonalEdgeStyle;rounded=0;orthogonalLoop=1;jettySize=auto;html=1;exitX=1;exitY=0.5;exitDx=0;exitDy=0;entryX=0;entryY=0.5;entryDx=0;entryDy=0;entryPerimeter=0;strokeWidth=2;startArrow=classic;startFill=1;" edge="1" parent="1" source="dh3pIF2ffj1Ap50NJZog-10" target="dh3pIF2ffj1Ap50NJZog-34">
          <mxGeometry relative="1" as="geometry" />
        </mxCell>
        <mxCell id="dh3pIF2ffj1Ap50NJZog-40" style="edgeStyle=orthogonalEdgeStyle;rounded=0;orthogonalLoop=1;jettySize=auto;html=1;exitX=1;exitY=0.5;exitDx=0;exitDy=0;entryX=0;entryY=0.5;entryDx=0;entryDy=0;entryPerimeter=0;strokeWidth=2;startArrow=classic;startFill=1;" edge="1" parent="1" source="dh3pIF2ffj1Ap50NJZog-16" target="dh3pIF2ffj1Ap50NJZog-33">
          <mxGeometry relative="1" as="geometry" />
        </mxCell>
        <mxCell id="dh3pIF2ffj1Ap50NJZog-41" style="edgeStyle=orthogonalEdgeStyle;rounded=0;orthogonalLoop=1;jettySize=auto;html=1;exitX=1;exitY=0.5;exitDx=0;exitDy=0;entryX=0;entryY=0.5;entryDx=0;entryDy=0;entryPerimeter=0;strokeWidth=2;startArrow=classic;startFill=1;" edge="1" parent="1" source="dh3pIF2ffj1Ap50NJZog-15" target="dh3pIF2ffj1Ap50NJZog-32">
          <mxGeometry relative="1" as="geometry" />
        </mxCell>
        <mxCell id="dh3pIF2ffj1Ap50NJZog-42" style="rounded=0;orthogonalLoop=1;jettySize=auto;html=1;exitX=1;exitY=0.5;exitDx=0;exitDy=0;strokeWidth=2;entryX=0;entryY=0.5;entryDx=0;entryDy=0;startArrow=classic;startFill=1;fillColor=#0050ef;strokeColor=#001DBC;" edge="1" parent="1" source="dh3pIF2ffj1Ap50NJZog-7" target="dh3pIF2ffj1Ap50NJZog-10">
          <mxGeometry relative="1" as="geometry">
            <mxPoint x="780" y="339.5" as="sourcePoint" />
            <mxPoint x="1160" y="340" as="targetPoint" />
          </mxGeometry>
        </mxCell>
        <mxCell id="dh3pIF2ffj1Ap50NJZog-43" style="rounded=0;orthogonalLoop=1;jettySize=auto;html=1;exitX=1;exitY=0.5;exitDx=0;exitDy=0;strokeWidth=2;entryX=0;entryY=0.5;entryDx=0;entryDy=0;startArrow=classic;startFill=1;fillColor=#0050ef;strokeColor=#001DBC;" edge="1" parent="1" source="dh3pIF2ffj1Ap50NJZog-7" target="dh3pIF2ffj1Ap50NJZog-19">
          <mxGeometry relative="1" as="geometry">
            <mxPoint x="780" y="340" as="sourcePoint" />
            <mxPoint x="1160" y="575" as="targetPoint" />
          </mxGeometry>
        </mxCell>
        <mxCell id="dh3pIF2ffj1Ap50NJZog-44" style="rounded=0;orthogonalLoop=1;jettySize=auto;html=1;exitX=1;exitY=0.5;exitDx=0;exitDy=0;strokeWidth=2;entryX=0;entryY=0.5;entryDx=0;entryDy=0;startArrow=classic;startFill=1;fillColor=#0050ef;strokeColor=#001DBC;" edge="1" parent="1" source="dh3pIF2ffj1Ap50NJZog-8" target="dh3pIF2ffj1Ap50NJZog-19">
          <mxGeometry relative="1" as="geometry">
            <mxPoint x="780" y="340" as="sourcePoint" />
            <mxPoint x="1160" y="695" as="targetPoint" />
          </mxGeometry>
        </mxCell>
        <mxCell id="dh3pIF2ffj1Ap50NJZog-45" style="rounded=0;orthogonalLoop=1;jettySize=auto;html=1;exitX=1;exitY=0.5;exitDx=0;exitDy=0;strokeWidth=2;entryX=0;entryY=0.5;entryDx=0;entryDy=0;startArrow=classic;startFill=1;fillColor=#0050ef;strokeColor=#001DBC;" edge="1" parent="1" source="dh3pIF2ffj1Ap50NJZog-9" target="dh3pIF2ffj1Ap50NJZog-15">
          <mxGeometry relative="1" as="geometry">
            <mxPoint x="780" y="455" as="sourcePoint" />
            <mxPoint x="1160" y="695" as="targetPoint" />
          </mxGeometry>
        </mxCell>
        <mxCell id="dh3pIF2ffj1Ap50NJZog-46" style="rounded=0;orthogonalLoop=1;jettySize=auto;html=1;exitX=1;exitY=0.5;exitDx=0;exitDy=0;strokeWidth=2;entryX=0;entryY=0.5;entryDx=0;entryDy=0;startArrow=classic;startFill=1;fillColor=#0050ef;strokeColor=#001DBC;" edge="1" parent="1" source="dh3pIF2ffj1Ap50NJZog-18" target="dh3pIF2ffj1Ap50NJZog-15">
          <mxGeometry relative="1" as="geometry">
            <mxPoint x="780" y="575" as="sourcePoint" />
            <mxPoint x="1160" y="340" as="targetPoint" />
          </mxGeometry>
        </mxCell>
        <mxCell id="dh3pIF2ffj1Ap50NJZog-47" value="&lt;span style=&quot;font-size: 14px;&quot;&gt;Artist-Release Model Service&lt;/span&gt;" style="rounded=0;whiteSpace=wrap;html=1;strokeWidth=2;" vertex="1" parent="1">
          <mxGeometry x="1150" y="880" width="140" height="70" as="geometry" />
        </mxCell>
        <mxCell id="dh3pIF2ffj1Ap50NJZog-48" style="edgeStyle=orthogonalEdgeStyle;rounded=0;orthogonalLoop=1;jettySize=auto;html=1;exitX=1;exitY=0.5;exitDx=0;exitDy=0;entryX=0;entryY=0.5;entryDx=0;entryDy=0;entryPerimeter=0;strokeWidth=2;startArrow=classic;startFill=1;" edge="1" parent="1">
          <mxGeometry relative="1" as="geometry">
            <mxPoint x="1290" y="914.29" as="sourcePoint" />
            <mxPoint x="1430" y="914.29" as="targetPoint" />
          </mxGeometry>
        </mxCell>
        <mxCell id="dh3pIF2ffj1Ap50NJZog-49" value="&lt;span style=&quot;font-size: 14px;&quot;&gt;Artist-Release&lt;/span&gt;" style="shape=cylinder3;whiteSpace=wrap;html=1;boundedLbl=1;backgroundOutline=1;size=15;strokeWidth=2;" vertex="1" parent="1">
          <mxGeometry x="1430" y="880" width="60" height="80" as="geometry" />
        </mxCell>
        <mxCell id="dh3pIF2ffj1Ap50NJZog-50" style="rounded=0;orthogonalLoop=1;jettySize=auto;html=1;exitX=1;exitY=0.5;exitDx=0;exitDy=0;strokeWidth=2;entryX=0;entryY=0.5;entryDx=0;entryDy=0;startArrow=classic;startFill=1;fillColor=#0050ef;strokeColor=#001DBC;" edge="1" parent="1" source="dh3pIF2ffj1Ap50NJZog-8" target="dh3pIF2ffj1Ap50NJZog-47">
          <mxGeometry relative="1" as="geometry">
            <mxPoint x="780" y="455" as="sourcePoint" />
            <mxPoint x="1160" y="695" as="targetPoint" />
          </mxGeometry>
        </mxCell>
        <mxCell id="dh3pIF2ffj1Ap50NJZog-51" style="rounded=0;orthogonalLoop=1;jettySize=auto;html=1;strokeWidth=2;entryX=0;entryY=0.5;entryDx=0;entryDy=0;startArrow=classic;startFill=1;fillColor=#0050ef;strokeColor=#001DBC;exitX=1;exitY=0.5;exitDx=0;exitDy=0;" edge="1" parent="1" source="dh3pIF2ffj1Ap50NJZog-17" target="dh3pIF2ffj1Ap50NJZog-47">
          <mxGeometry relative="1" as="geometry">
            <mxPoint x="780" y="694.5" as="sourcePoint" />
            <mxPoint x="1160" y="695" as="targetPoint" />
          </mxGeometry>
        </mxCell>
        <mxCell id="dh3pIF2ffj1Ap50NJZog-52" style="rounded=0;orthogonalLoop=1;jettySize=auto;html=1;exitX=1;exitY=0.5;exitDx=0;exitDy=0;strokeWidth=2;entryX=0;entryY=0.5;entryDx=0;entryDy=0;startArrow=classic;startFill=1;fillColor=#0050ef;strokeColor=#001DBC;" edge="1" parent="1" source="dh3pIF2ffj1Ap50NJZog-17" target="dh3pIF2ffj1Ap50NJZog-16">
          <mxGeometry relative="1" as="geometry">
            <mxPoint x="790" y="704.5" as="sourcePoint" />
            <mxPoint x="1170" y="705" as="targetPoint" />
          </mxGeometry>
        </mxCell>
        <mxCell id="dh3pIF2ffj1Ap50NJZog-53" style="rounded=0;orthogonalLoop=1;jettySize=auto;html=1;exitX=1;exitY=0.5;exitDx=0;exitDy=0;strokeWidth=2;entryX=0;entryY=0.5;entryDx=0;entryDy=0;startArrow=classic;startFill=1;fillColor=#0050ef;strokeColor=#001DBC;" edge="1" parent="1" source="dh3pIF2ffj1Ap50NJZog-7" target="dh3pIF2ffj1Ap50NJZog-20">
          <mxGeometry relative="1" as="geometry">
            <mxPoint x="780" y="340" as="sourcePoint" />
            <mxPoint x="1160" y="695" as="targetPoint" />
          </mxGeometry>
        </mxCell>
        <mxCell id="dh3pIF2ffj1Ap50NJZog-54" value="&lt;font style=&quot;font-size: 25px;&quot;&gt;Kubernets&lt;/font&gt;" style="text;html=1;align=center;verticalAlign=middle;whiteSpace=wrap;rounded=0;" vertex="1" parent="1">
          <mxGeometry x="1090" y="200" width="50" height="30" as="geometry" />
        </mxCell>
        <mxCell id="dh3pIF2ffj1Ap50NJZog-55" value="&lt;div&gt;&lt;br&gt;&lt;/div&gt;&lt;div&gt;&lt;br&gt;&lt;/div&gt;&lt;div&gt;&lt;br&gt;&lt;/div&gt;&lt;div&gt;&lt;br&gt;&lt;/div&gt;&lt;div&gt;&lt;br&gt;&lt;/div&gt;&lt;div&gt;&lt;br&gt;&lt;/div&gt;&lt;div&gt;&lt;br&gt;&lt;/div&gt;&lt;div&gt;&lt;font style=&quot;font-size: 22px;&quot;&gt;Bucket&lt;/font&gt;&lt;/div&gt;" style="rounded=0;whiteSpace=wrap;html=1;" vertex="1" parent="1">
          <mxGeometry x="1700" y="525" width="120" height="145" as="geometry" />
        </mxCell>
        <mxCell id="dh3pIF2ffj1Ap50NJZog-56" value="&lt;font style=&quot;font-size: 22px;&quot;&gt;.csv&lt;/font&gt;" style="whiteSpace=wrap;html=1;shape=mxgraph.basic.document" vertex="1" parent="1">
          <mxGeometry x="1720" y="550" width="55" height="70" as="geometry" />
        </mxCell>
        <mxCell id="dh3pIF2ffj1Ap50NJZog-57" value="&lt;font style=&quot;font-size: 22px;&quot;&gt;.csv&lt;/font&gt;" style="whiteSpace=wrap;html=1;shape=mxgraph.basic.document" vertex="1" parent="1">
          <mxGeometry x="1727.5" y="540" width="55" height="70" as="geometry" />
        </mxCell>
        <mxCell id="dh3pIF2ffj1Ap50NJZog-58" value="" style="endArrow=classic;html=1;rounded=0;exitX=0;exitY=0.5;exitDx=0;exitDy=0;entryX=1;entryY=0.5;entryDx=0;entryDy=0;entryPerimeter=0;" edge="1" parent="1" source="dh3pIF2ffj1Ap50NJZog-55" target="dh3pIF2ffj1Ap50NJZog-32">
          <mxGeometry width="50" height="50" relative="1" as="geometry">
            <mxPoint x="1450" y="600" as="sourcePoint" />
            <mxPoint x="1500" y="550" as="targetPoint" />
          </mxGeometry>
        </mxCell>
        <mxCell id="dh3pIF2ffj1Ap50NJZog-59" value="" style="endArrow=classic;html=1;rounded=0;entryX=1;entryY=0.5;entryDx=0;entryDy=0;entryPerimeter=0;" edge="1" parent="1" target="dh3pIF2ffj1Ap50NJZog-33">
          <mxGeometry width="50" height="50" relative="1" as="geometry">
            <mxPoint x="1700" y="600" as="sourcePoint" />
            <mxPoint x="1500" y="340" as="targetPoint" />
          </mxGeometry>
        </mxCell>
        <mxCell id="dh3pIF2ffj1Ap50NJZog-60" value="" style="endArrow=classic;html=1;rounded=0;exitX=0;exitY=0.5;exitDx=0;exitDy=0;entryX=1;entryY=0.5;entryDx=0;entryDy=0;entryPerimeter=0;" edge="1" parent="1" source="dh3pIF2ffj1Ap50NJZog-55" target="dh3pIF2ffj1Ap50NJZog-34">
          <mxGeometry width="50" height="50" relative="1" as="geometry">
            <mxPoint x="1720" y="618" as="sourcePoint" />
            <mxPoint x="1510" y="350" as="targetPoint" />
          </mxGeometry>
        </mxCell>
        <mxCell id="dh3pIF2ffj1Ap50NJZog-61" value="" style="endArrow=classic;html=1;rounded=0;exitX=0;exitY=0.5;exitDx=0;exitDy=0;entryX=1;entryY=0.5;entryDx=0;entryDy=0;entryPerimeter=0;" edge="1" parent="1" source="dh3pIF2ffj1Ap50NJZog-55" target="dh3pIF2ffj1Ap50NJZog-35">
          <mxGeometry width="50" height="50" relative="1" as="geometry">
            <mxPoint x="1730" y="628" as="sourcePoint" />
            <mxPoint x="1520" y="360" as="targetPoint" />
          </mxGeometry>
        </mxCell>
        <mxCell id="dh3pIF2ffj1Ap50NJZog-62" value="" style="endArrow=classic;html=1;rounded=0;exitX=0;exitY=0.5;exitDx=0;exitDy=0;entryX=1;entryY=0;entryDx=0;entryDy=52.5;entryPerimeter=0;" edge="1" parent="1" source="dh3pIF2ffj1Ap50NJZog-55" target="dh3pIF2ffj1Ap50NJZog-36">
          <mxGeometry width="50" height="50" relative="1" as="geometry">
            <mxPoint x="1740" y="638" as="sourcePoint" />
            <mxPoint x="1530" y="370" as="targetPoint" />
          </mxGeometry>
        </mxCell>
        <mxCell id="dh3pIF2ffj1Ap50NJZog-63" value="" style="endArrow=classic;html=1;rounded=0;exitX=0;exitY=0.5;exitDx=0;exitDy=0;entryX=1;entryY=0.5;entryDx=0;entryDy=0;entryPerimeter=0;" edge="1" parent="1" source="dh3pIF2ffj1Ap50NJZog-55" target="dh3pIF2ffj1Ap50NJZog-49">
          <mxGeometry width="50" height="50" relative="1" as="geometry">
            <mxPoint x="1750" y="648" as="sourcePoint" />
            <mxPoint x="1540" y="380" as="targetPoint" />
          </mxGeometry>
        </mxCell>
        <mxCell id="dh3pIF2ffj1Ap50NJZog-71" value="BigQuery" style="text;html=1;align=center;verticalAlign=middle;whiteSpace=wrap;rounded=0;" vertex="1" parent="1">
          <mxGeometry x="1420" y="265" width="60" height="30" as="geometry" />
        </mxCell>
        <mxCell id="dh3pIF2ffj1Ap50NJZog-77" value="BigQuery" style="text;html=1;align=center;verticalAlign=middle;whiteSpace=wrap;rounded=0;" vertex="1" parent="1">
          <mxGeometry x="1420" y="380" width="60" height="30" as="geometry" />
        </mxCell>
        <mxCell id="dh3pIF2ffj1Ap50NJZog-79" value="BigQuery" style="text;html=1;align=center;verticalAlign=middle;whiteSpace=wrap;rounded=0;" vertex="1" parent="1">
          <mxGeometry x="1420" y="500" width="60" height="30" as="geometry" />
        </mxCell>
        <mxCell id="dh3pIF2ffj1Ap50NJZog-80" value="BigQuery" style="text;html=1;align=center;verticalAlign=middle;whiteSpace=wrap;rounded=0;" vertex="1" parent="1">
          <mxGeometry x="1420" y="620" width="60" height="30" as="geometry" />
        </mxCell>
        <mxCell id="dh3pIF2ffj1Ap50NJZog-81" value="BigQuery" style="text;html=1;align=center;verticalAlign=middle;whiteSpace=wrap;rounded=0;" vertex="1" parent="1">
          <mxGeometry x="1420" y="740" width="60" height="30" as="geometry" />
        </mxCell>
        <mxCell id="dh3pIF2ffj1Ap50NJZog-82" value="BigQuery" style="text;html=1;align=center;verticalAlign=middle;whiteSpace=wrap;rounded=0;" vertex="1" parent="1">
          <mxGeometry x="1418" y="853" width="60" height="30" as="geometry" />
        </mxCell>
      </root>
    </mxGraphModel>
  </diagram>
</mxfile>
